<?xml version="1.0" standalone="no"?>
<!DOCTYPE svg PUBLIC "-//W3C//DTD SVG 20010904//EN"
 "http://www.w3.org/TR/2001/REC-SVG-20010904/DTD/svg10.dtd">
<svg version="1.0" xmlns="http://www.w3.org/2000/svg"
 width="64.000000pt" height="64.000000pt" viewBox="0 0 64.000000 64.000000"
 preserveAspectRatio="xMidYMid meet">

<g transform="translate(0.000000,64.000000) scale(0.100000,-0.100000)"
fill="#000000" stroke="none">
<path d="M387 322 c-43 -44 -45 -52 -13 -52 30 0 50 -23 41 -49 -5 -16 0 -24
19 -33 14 -6 26 -19 26 -29 0 -18 -10 -23 -72 -34 -22 -3 -38 -12 -38 -19 0
-11 24 -12 114 -8 108 4 114 4 125 -16 21 -40 -14 -46 -259 -46 -237 -1 -280
6 -288 47 -3 14 4 17 46 17 50 0 61 7 90 58 7 13 12 26 10 28 -8 7 -148 -24
-164 -36 -26 -22 -15 -89 19 -114 27 -20 43 -21 265 -24 278 -3 318 3 315 53
-1 17 -4 65 -6 108 -3 42 -10 84 -17 92 -18 21 -57 19 -70 -5 -16 -30 -61 -26
-93 8 -35 36 -34 45 3 37 36 -8 38 4 7 33 l-23 22 -37 -38z"/>
<path d="M293 283 c-15 -5 -17 -49 -4 -58 10 -6 42 51 33 59 -6 7 -12 7 -29
-1z"/>
<path d="M211 231 c-7 -13 -6 -23 3 -36 12 -17 14 -16 28 13 9 17 13 33 10 36
-11 12 -32 5 -41 -13z"/>
</g>
</svg>
